#!OML:ASF F:\twosubjects\two\Thursday\Session 1\Rory.ASF
:FULLY-SPECIFIED
:DEGREES
356
root 13.9474 10.9183 15.8758 -171.372 -13.3264 -185.156
lowerback 28.0125 1.47456 -9.82353
upperback 12.6574 -4.50141 -6.52643
thorax -1.17244 -3.82903 -0.309961
lowerneck 3.88936 -15.8278 -15.7288
upperneck -12.2406 -21.0608 23.665
head 0.190753 -11.4789 9.15721
rclavicle 7.4743e-014 4.77083e-014
rhumerus -14.5491 -46.9579 -42.5756
rradius 124
rwrist -11.3804
rhand -38.8669 16.6447
rfingers 7.12502
rthumb -11.8753 -12.9985
lclavicle 7.4743e-014 4.77083e-014
lhumerus -0.0564096 -56.2244 30.8418
lradius 106.359
lwrist -3.98157
lhand -37.4881 28.3041
lfingers 7.12502
lthumb -10.5455 58.0195
rfemur -11.7328 -7.4612 3.71546
rtibia 111.045
rfoot 5.11993 2.33257
rtoes -19.8985
lfemur -88.8328 17.7692 -22.6609
ltibia 118.871
lfoot -31.0077 -14.9709
ltoes -25.9834
357
root 13.9698 10.9762 15.8765 -171.182 -13.3799 -185.234
lowerback 27.9306 1.64867 -10.4839
upperback 12.2299 -4.30713 -6.23883
thorax -1.54845 -3.68606 0.338751
lowerneck 5.64556 -15.6018 -16.1952
upperneck -12.435 -20.8783 23.5774
head -0.14535 -11.4087 9.40635
rclavicle -2.38542e-014 -7.63333e-014
rhumerus -15.7613 -46.4875 -40.9857
rradius 124.094
rwrist -11.8815
rhand -38.4239 16.7885
rfingers 7.12502
rthumb -11.4481 -12.879
lclavicle -2.38542e-014 -7.63333e-014
lhumerus -1.16279 -55.2431 32.0723
lradius 106.883
lwrist -8.82344
lhand -31.7316 29.7001
lfingers 7.12502
lthumb -4.98959 59.6214
rfemur -12.0635 -7.66537 3.77194
rtibia 110.93
rfoot 5.54109 2.50422
rtoes -19.8608
lfemur -88.8211 17.6865 -22.7139
ltibia 118.565
lfoot -31.1348 -15.1389
ltoes -24.4855
358
root 13.9882 10.9249 15.9147 -171.025 -13.5768 -185.215
lowerback 28.1459 1.53772 -10.4378
upperback 11.9687 -4.42989 -6.30371
thorax -1.94374 -3.69127 0.304839
lowerneck 6.11563 -15.5905 -16.1277
upperneck -12.1678 -20.9081 23.2562
head -0.191215 -11.3992 9.3326
rclavicle 5.88403e-014 1.19271e-013
rhumerus -16.3653 -46.1879 -40.5738
rradius 124.191
rwrist -11.6171
rhand -38.4834 16.5079
rfingers 7.12502
rthumb -11.5054 -13.1563
lclavicle 5.88403e-014 1.19271e-013
lhumerus -2.51001 -57.0652 32.5449
lradius 107.591
lwrist -4.95126
lhand -37.274 29.0534
lfingers 7.12502
lthumb -10.339 58.7793
rfemur -12.4754 -7.7369 3.94736
rtibia 111.341
rfoot 5.53186 2.86636
rtoes -20.7981
lfemur -89.2548 17.4776 -22.8581
ltibia 118.426
lfoot -31.2794 -14.2198
ltoes -25.3245
359
root 14.002 10.9277 15.9314 -170.852 -13.7596 -185.053
lowerback 28.3333 1.27855 -9.76765
upperback 12.037 -4.66107 -6.60782
thorax -2.02323 -3.78209 -0.32519
lowerneck 6.31764 -15.5278 -15.8035
upperneck -12.9362 -20.7638 23.7002
head -0.446727 -11.4256 9.50909
rclavicle 1.90833e-014 0
rhumerus -16.2135 -46.3997 -41.2913
rradius 124.242
rwrist -10.9889
rhand -38.9244 16.406
rfingers 7.12502
rthumb -11.9308 -13.234
lclavicle 1.90833e-014 0
lhumerus -2.57331 -57.8261 31.7851
lradius 107.969
lwrist -2.20978
lhand -39.219 27.7813
lfingers 7.12502
lthumb -12.2148 57.4047
rfemur -12.7695 -7.82658 4.31168
rtibia 111.399
rfoot 5.63258 3.17563
rtoes -20.9478
lfemur -89.6658 17.4764 -22.8449
ltibia 118.276
lfoot -30.9695 -14.5293
ltoes -24.0333
360
root 14.0157 10.9589 15.9375 -170.725 -13.8129 -184.955
lowerback 28.1432 1.37339 -9.74821
upperback 12.6398 -4.57797 -6.35349
thorax -1.23716 -3.84609 -0.132834
lowerneck 2.21204 -16.3731 -16.9602
upperneck -10.2167 -21.8409 23.7502
head 1.33936 -11.6533 8.93672
rclavicle -8.26944e-014 -7.63333e-014
rhumerus -14.5179 -47.2466 -42.2989
rradius 124.151
rwrist -10.6309
rhand -39.5495 16.5857
rfingers 7.12502
rthumb -12.5335 -13.0184
lclavicle -8.26944e-014 -7.63333e-014
lhumerus -1.01986 -54.5876 30.9408
lradius 107.872
lwrist -7.97218
lhand -28.0401 29.4229
lfingers 7.12502
lthumb -1.42465 59.3979
rfemur -13.101 -7.87288 4.57496
rtibia 111.386
rfoot 5.92199 3.42704
rtoes -21.1009
lfemur -89.6815 17.5136 -22.8483
ltibia 118.04
lfoot -31.0154 -14.6359
ltoes -24.0162
361
root 14.0332 10.9288 15.9637 -170.561 -13.9177 -185.179
lowerback 28.1027 1.33729 -9.98528
upperback 12.7207 -4.6982 -6.35023
thorax -1.09998 -3.93126 0.0248335
lowerneck 1.12933 -16.6225 -17.7669
upperneck -8.93267 -22.1954 23.9203
head 2.06743 -11.6966 8.85674
rclavicle 6.20208e-014 1.1609e-013
rhumerus -14.0167 -47.1794 -42.6575
rradius 124.268
rwrist -10.691
rhand -40.0232 16.1207
rfingers 7.12502
rthumb -12.9902 -13.4549
lclavicle 6.20208e-014 1.1609e-013
lhumerus -1.22409 -54.5609 30.9979
lradius 108.033
lwrist -7.73489
lhand -32.4572 30.4031
lfingers 7.12502
lthumb -5.69013 60.3067
rfemur -13.4486 -7.96781 4.37974
rtibia 111.686
rfoot 6.01723 3.76215
rtoes -21.6668
lfemur -89.9601 17.3011 -23.098
ltibia 117.986
lfoot -31.0221 -14.5765
ltoes -23.8095
362
root 14.054 10.9164 15.9822 -170.579 -14.0452 -185.594
lowerback 28.2578 1.65341 -10.7131
upperback 12.3441 -4.43834 -6.25275
thorax -1.54372 -3.77193 0.492707
lowerneck 3.53935 -16.409 -17.4425
upperneck -9.86601 -22.0241 23.8138
head 1.32574 -11.7403 9.1007
rclavicle 9.85972e-014 1.09729e-013
rhumerus -15.692 -46.9081 -41.0682
rradius 124.426
rwrist -10.8608
rhand -39.863 15.6523
rfingers 7.12502
rthumb -12.8357 -13.9331
lclavicle 9.85972e-014 1.09729e-013
lhumerus -1.62449 -55.6282 31.4561
lradius 108.202
lwrist -8.32621
lhand -33.3776 29.9689
lfingers 7.12502
lthumb -6.57871 59.8467
rfemur -13.2781 -8.14221 3.79688
rtibia 111.754
rfoot 5.92951 4.254
rtoes -22.0195
lfemur -89.7034 17.1567 -23.5132
ltibia 117.758
lfoot -31.2524 -14.4941
ltoes -23.549
363
root 14.0746 10.9085 15.9984 -170.772 -14.3287 -185.341
lowerback 28.5435 1.52056 -10.3537
upperback 12.4825 -4.58804 -6.26824
thorax -1.54024 -3.84952 0.326379
lowerneck 3.53611 -16.4279 -17.4556
upperneck -10.1457 -22.0347 24.0134
head 1.27873 -11.7762 9.17215
rclavicle 1.74931e-014 2.70347e-014
rhumerus -15.4032 -47.0861 -41.495
rradius 124.322
rwrist -10.5254
rhand -39.7758 15.644
rfingers 7.12502
rthumb -12.7517 -13.9466
lclavicle 1.74931e-014 2.70347e-014
lhumerus -1.66306 -55.4194 31.18
lradius 108.367
lwrist -9.01778
lhand -32.455 29.6186
lfingers 7.12502
lthumb -5.68806 59.5222
rfemur -13.0565 -8.15229 4.24515
rtibia 111.729
rfoot 5.89083 4.39522
rtoes -22.1857
lfemur -89.6616 17.2048 -23.3489
ltibia 117.603
lfoot -31.5123 -13.9537
ltoes -25.3923
364
root 14.0936 10.9091 16.0148 -170.701 -14.6449 -184.909
lowerback 28.5942 1.35334 -10.1671
upperback 12.4237 -4.68727 -6.00895
thorax -1.61295 -3.87002 0.543479
lowerneck 3.67797 -16.3712 -17.6452
upperneck -10.2609 -21.9729 24.0263
head 1.23406 -11.7519 9.22973
rclavicle 1.1609e-013 1.145e-013
rhumerus -15.1121 -47.0653 -41.4979
rradius 124.206
rwrist -10.4542
rhand -39.8662 15.3082
rfingers 7.12502
rthumb -12.8388 -14.277
lclavicle 1.1609e-013 1.145e-013
lhumerus -2.42018 -55.1562 31.9008
lradius 108.652
lwrist -9.65973
lhand -31.8371 30.1803
lfingers 7.12502
lthumb -5.09148 60.0991
rfemur -13.3595 -8.21709 5.03445
rtibia 111.757
rfoot 6.15907 4.5459
rtoes -22.6228
lfemur -90.058 17.2012 -23.0628
ltibia 117.463
lfoot -31.5355 -13.3442
ltoes -27.3048
365
root 14.1096 10.921 16.0278 -170.589 -14.7524 -185.249
lowerback 28.8197 1.35048 -10.4117
upperback 12.3437 -4.81719 -6.15989
thorax -1.79213 -3.93074 0.566227
lowerneck 4.2707 -16.2831 -17.3113
upperneck -10.7105 -21.8547 24.0259
head 0.948459 -11.7491 9.29177
rclavicle -6.52014e-014 -3.65764e-014
rhumerus -15.4453 -47.3639 -41.2267
rradius 124.102
rwrist -10.4488
rhand -39.1805 15.2489
rfingers 7.12502
rthumb -12.1777 -14.3766
lclavicle -6.52014e-014 -3.65764e-014
lhumerus -3.00739 -55.0366 32.1789
lradius 108.821
lwrist -10.2694
lhand -32.3564 30.3065
lfingers 7.12502
lthumb -5.59287 60.2127
rfemur -13.4455 -8.27284 4.63776
rtibia 111.786
rfoot 6.25822 5.10833
rtoes -22.7188
lfemur -90.091 17.0078 -23.4029
ltibia 117.321
lfoot -31.2677 -13.5512
ltoes -26.1962
366
root 14.1222 10.9384 16.0323 -170.808 -14.9138 -185.465
lowerback 29.0238 1.49433 -10.6286
upperback 12.6821 -4.79591 -6.03769
thorax -1.47297 -3.99761 0.798652
lowerneck 4.04084 -16.4729 -17.2088
upperneck -11.241 -22.0556 23.9403
head 0.848483 -11.8807 9.22895
rclavicle -4.6118e-014 -3.81667e-014
rhumerus -14.9105 -48.1572 -41.221
rradius 123.726
rwrist -9.97341
rhand -38.2623 16.0814
rfingers 7.12502
rthumb -11.2922 -13.5946
lclavicle -4.6118e-014 -3.81667e-014
lhumerus -3.1486 -56.1398 32.3412
lradius 109.025
lwrist -6.62181
lhand -37.6804 30.2342
lfingers 7.12502
lthumb -10.731 59.9401
rfemur -13.0665 -8.25733 4.34617
rtibia 111.68
rfoot 6.27835 5.31857
rtoes -22.2803
lfemur -89.9105 16.9695 -23.427
ltibia 117.374
lfoot -30.7036 -15.1733
ltoes -21.8459
